<?xml version="1.0" encoding="UTF-8" standalone="no"?>
<!-- Created with Inkscape (http://www.inkscape.org/) -->

<svg
   xmlns:dc="http://purl.org/dc/elements/1.1/"
   xmlns:cc="http://creativecommons.org/ns#"
   xmlns:rdf="http://www.w3.org/1999/02/22-rdf-syntax-ns#"
   xmlns:svg="http://www.w3.org/2000/svg"
   xmlns="http://www.w3.org/2000/svg"
   xmlns:sodipodi="http://sodipodi.sourceforge.net/DTD/sodipodi-0.dtd"
   xmlns:inkscape="http://www.inkscape.org/namespaces/inkscape"
   width="1920px"
   height="1080px"
   viewBox="0 0 1920 1080"
   version="1.1"
   id="SVGRoot"
   inkscape:version="0.92.5 (2060ec1f9f, 2020-04-08)"
   sodipodi:docname="desktop.svg">
  <defs
     id="defs10" />
  <sodipodi:namedview
     id="base"
     pagecolor="#ffffff"
     bordercolor="#666666"
     borderopacity="1.0"
     inkscape:pageopacity="0.0"
     inkscape:pageshadow="2"
     inkscape:zoom="1.979899"
     inkscape:cx="224.27304"
     inkscape:cy="1075.3123"
     inkscape:document-units="px"
     inkscape:current-layer="layer1"
     showgrid="false"
     inkscape:window-width="1920"
     inkscape:window-height="1048"
     inkscape:window-x="1920"
     inkscape:window-y="32"
     inkscape:window-maximized="0"
     inkscape:snap-bbox="true"
     inkscape:bbox-paths="true"
     inkscape:bbox-nodes="true"
     inkscape:snap-bbox-edge-midpoints="true"
     inkscape:snap-bbox-midpoints="true"
     inkscape:object-paths="true"
     inkscape:snap-intersection-paths="true"
     inkscape:snap-smooth-nodes="true"
     inkscape:snap-midpoints="true"
     inkscape:snap-object-midpoints="true"
     inkscape:snap-center="true"
     inkscape:snap-text-baseline="true"
     inkscape:snap-page="true"
     inkscape:snap-global="false">
    <inkscape:grid
       type="xygrid"
       id="grid1030" />
  </sodipodi:namedview>
  <metadata
     id="metadata13">
    <rdf:RDF>
      <cc:Work
         rdf:about="">
        <dc:format>image/svg+xml</dc:format>
        <dc:type
           rdf:resource="http://purl.org/dc/dcmitype/StillImage" />
        <dc:title></dc:title>
      </cc:Work>
    </rdf:RDF>
  </metadata>
  <g
     inkscape:label="Ebene 1"
     inkscape:groupmode="layer"
     id="layer1">
    <rect
       style="fill:#292f3a;fill-opacity:1;stroke:none;stroke-width:22.30595779;stroke-linecap:round;stroke-linejoin:round;stroke-miterlimit:4;stroke-dasharray:none;stroke-dashoffset:0;stroke-opacity:1;paint-order:stroke markers fill"
       id="rect23"
       width="1920"
       height="34"
       x="0"
       y="0" />
    <g
       id="g855"
       transform="translate(34)">
      <rect
         style="fill:#5293e1;fill-opacity:1;stroke:none;stroke-width:29.72598457;stroke-linecap:round;stroke-linejoin:round;stroke-miterlimit:4;stroke-dasharray:none;stroke-dashoffset:0;stroke-opacity:1;paint-order:stroke markers fill"
         id="rect847"
         width="34"
         height="34"
         x="0"
         y="0" />
      <rect
         y="30"
         x="0"
         height="4"
         width="34"
         id="rect849"
         style="fill:#3579ca;fill-opacity:1;stroke:none;stroke-width:10.19592762;stroke-linecap:round;stroke-linejoin:round;stroke-miterlimit:4;stroke-dasharray:none;stroke-dashoffset:0;stroke-opacity:1;paint-order:stroke markers fill" />
    </g>
    <g
       id="g866"
       transform="translate(-0.368992,-0.621382)">
      <path
         inkscape:connector-curvature="0"
         id="rect857"
         d="M 5.1775858,5.4299754 V 21.719038 H 21.466649 V 5.4299754 Z M 9.2732889,9.5276317 H 17.368992 V 17.621382 H 9.2732889 Z"
         style="fill:#ffffff;fill-opacity:1;stroke:none;stroke-width:29.72598457;stroke-linecap:round;stroke-linejoin:round;stroke-miterlimit:4;stroke-dasharray:none;stroke-dashoffset:0;stroke-opacity:1;paint-order:stroke markers fill" />
      <rect
         style="fill:#ffffff;fill-opacity:1;stroke:none;stroke-width:14.7720108;stroke-linecap:round;stroke-linejoin:round;stroke-miterlimit:4;stroke-dasharray:none;stroke-dashoffset:0;stroke-opacity:1;paint-order:stroke markers fill"
         id="rect859"
         width="8.0944996"
         height="8.0944996"
         x="21.46574"
         y="21.718279" />
    </g>
    <g
       transform="translate(68)"
       id="g880">
      <rect
         y="0"
         x="0"
         height="34"
         width="34"
         id="rect872"
         style="fill:#5293e1;fill-opacity:1;stroke:none;stroke-width:29.72598457;stroke-linecap:round;stroke-linejoin:round;stroke-miterlimit:4;stroke-dasharray:none;stroke-dashoffset:0;stroke-opacity:1;paint-order:stroke markers fill" />
      <rect
         style="fill:#3579ca;fill-opacity:1;stroke:none;stroke-width:10.19592762;stroke-linecap:round;stroke-linejoin:round;stroke-miterlimit:4;stroke-dasharray:none;stroke-dashoffset:0;stroke-opacity:1;paint-order:stroke markers fill"
         id="rect874"
         width="34"
         height="4"
         x="0"
         y="30" />
    </g>
    <g
       id="g890"
       transform="translate(102)">
      <rect
         style="fill:#5293e1;fill-opacity:1;stroke:none;stroke-width:29.72598457;stroke-linecap:round;stroke-linejoin:round;stroke-miterlimit:4;stroke-dasharray:none;stroke-dashoffset:0;stroke-opacity:1;paint-order:stroke markers fill"
         id="rect882"
         width="34"
         height="34"
         x="0"
         y="0" />
      <rect
         y="30"
         x="0"
         height="4"
         width="34"
         id="rect884"
         style="fill:#3579ca;fill-opacity:1;stroke:none;stroke-width:10.19592762;stroke-linecap:round;stroke-linejoin:round;stroke-miterlimit:4;stroke-dasharray:none;stroke-dashoffset:0;stroke-opacity:1;paint-order:stroke markers fill" />
    </g>
    <g
       transform="translate(136)"
       id="g900">
      <rect
         y="0"
         x="0"
         height="34"
         width="34"
         id="rect892"
         style="fill:#5293e1;fill-opacity:1;stroke:none;stroke-width:29.72598457;stroke-linecap:round;stroke-linejoin:round;stroke-miterlimit:4;stroke-dasharray:none;stroke-dashoffset:0;stroke-opacity:1;paint-order:stroke markers fill" />
      <rect
         style="fill:#3579ca;fill-opacity:1;stroke:none;stroke-width:10.19592762;stroke-linecap:round;stroke-linejoin:round;stroke-miterlimit:4;stroke-dasharray:none;stroke-dashoffset:0;stroke-opacity:1;paint-order:stroke markers fill"
         id="rect894"
         width="34"
         height="4"
         x="0"
         y="30" />
    </g>
    <g
       id="g910"
       transform="translate(170)">
      <rect
         style="fill:#5293e1;fill-opacity:1;stroke:none;stroke-width:29.72598457;stroke-linecap:round;stroke-linejoin:round;stroke-miterlimit:4;stroke-dasharray:none;stroke-dashoffset:0;stroke-opacity:1;paint-order:stroke markers fill"
         id="rect902"
         width="34"
         height="34"
         x="0"
         y="0" />
      <rect
         y="30"
         x="0"
         height="4"
         width="34"
         id="rect904"
         style="fill:#3579ca;fill-opacity:1;stroke:none;stroke-width:10.19592762;stroke-linecap:round;stroke-linejoin:round;stroke-miterlimit:4;stroke-dasharray:none;stroke-dashoffset:0;stroke-opacity:1;paint-order:stroke markers fill" />
    </g>
    <g
       transform="translate(204)"
       id="g920">
      <rect
         y="0"
         x="0"
         height="34"
         width="34"
         id="rect912"
         style="fill:#5293e1;fill-opacity:1;stroke:none;stroke-width:29.72598457;stroke-linecap:round;stroke-linejoin:round;stroke-miterlimit:4;stroke-dasharray:none;stroke-dashoffset:0;stroke-opacity:1;paint-order:stroke markers fill" />
      <rect
         style="fill:#3579ca;fill-opacity:1;stroke:none;stroke-width:10.19592762;stroke-linecap:round;stroke-linejoin:round;stroke-miterlimit:4;stroke-dasharray:none;stroke-dashoffset:0;stroke-opacity:1;paint-order:stroke markers fill"
         id="rect914"
         width="34"
         height="4"
         x="0"
         y="30" />
    </g>
    <g
       id="g930"
       transform="translate(238)">
      <rect
         style="fill:#5293e1;fill-opacity:1;stroke:none;stroke-width:29.72598457;stroke-linecap:round;stroke-linejoin:round;stroke-miterlimit:4;stroke-dasharray:none;stroke-dashoffset:0;stroke-opacity:1;paint-order:stroke markers fill"
         id="rect922"
         width="34"
         height="34"
         x="0"
         y="0" />
      <rect
         y="30"
         x="0"
         height="4"
         width="34"
         id="rect924"
         style="fill:#3579ca;fill-opacity:1;stroke:none;stroke-width:10.19592762;stroke-linecap:round;stroke-linejoin:round;stroke-miterlimit:4;stroke-dasharray:none;stroke-dashoffset:0;stroke-opacity:1;paint-order:stroke markers fill" />
    </g>
    <g
       transform="translate(272)"
       id="g940">
      <rect
         y="0"
         x="0"
         height="34"
         width="34"
         id="rect932"
         style="fill:#5293e1;fill-opacity:1;stroke:none;stroke-width:29.72598457;stroke-linecap:round;stroke-linejoin:round;stroke-miterlimit:4;stroke-dasharray:none;stroke-dashoffset:0;stroke-opacity:1;paint-order:stroke markers fill" />
      <rect
         style="fill:#3579ca;fill-opacity:1;stroke:none;stroke-width:10.19592762;stroke-linecap:round;stroke-linejoin:round;stroke-miterlimit:4;stroke-dasharray:none;stroke-dashoffset:0;stroke-opacity:1;paint-order:stroke markers fill"
         id="rect934"
         width="34"
         height="4"
         x="0"
         y="30" />
    </g>
    <g
       id="g950"
       transform="translate(306)">
      <rect
         style="fill:#5293e1;fill-opacity:1;stroke:none;stroke-width:29.72598457;stroke-linecap:round;stroke-linejoin:round;stroke-miterlimit:4;stroke-dasharray:none;stroke-dashoffset:0;stroke-opacity:1;paint-order:stroke markers fill"
         id="rect942"
         width="34"
         height="34"
         x="0"
         y="0" />
    </g>
    <path
       inkscape:connector-curvature="0"
       id="path1002"
       style="font-style:normal;font-variant:normal;font-weight:normal;font-stretch:normal;font-size:23.98152542px;line-height:1.25;font-family:Cantarell;-inkscape-font-specification:Cantarell;letter-spacing:0px;word-spacing:0px;fill:#ffffff;fill-opacity:1;stroke:none;stroke-width:0.59953815"
       d="m 50.864936,24.527382 h 1.894541 V 7.7642963 h -1.151114 l -5.923436,3.0696347 0.719445,1.366947 4.460564,-2.134355 z" />
    <path
       inkscape:connector-curvature="0"
       id="path1004"
       style="font-style:normal;font-variant:normal;font-weight:normal;font-stretch:normal;font-size:23.98152542px;line-height:1.25;font-family:Cantarell;-inkscape-font-specification:Cantarell;letter-spacing:0px;word-spacing:0px;fill:#ffffff;fill-opacity:1;stroke:none;stroke-width:0.59953815"
       d="m 80.37667,24.407475 h 10.551871 v -1.72667 h -7.650107 c 5.227973,-4.964176 7.002606,-7.650107 7.002606,-10.455945 0,-2.9257457 -1.990467,-4.7003787 -5.060102,-4.7003787 -1.990467,0 -3.885007,0.719446 -5.108065,1.89454 l 0.551575,1.3909287 c 1.271021,-1.0312057 2.853802,-1.5348177 4.148804,-1.5348177 2.134356,0 3.45334,1.2710207 3.45334,3.2614877 0,2.422134 -1.942504,4.940194 -7.889922,10.551871 z" />
    <path
       inkscape:connector-curvature="0"
       id="path1006"
       style="font-style:normal;font-variant:normal;font-weight:normal;font-stretch:normal;font-size:23.98152542px;line-height:1.25;font-family:Cantarell;-inkscape-font-specification:Cantarell;letter-spacing:0px;word-spacing:0px;fill:#ffffff;fill-opacity:1;stroke:none;stroke-width:0.59953815"
       d="m 121.48277,24.671272 c 3.6452,0 6.16326,-1.918522 6.16326,-4.796305 0,-2.158338 -1.46288,-3.741118 -3.7651,-4.124823 1.77463,-0.527593 2.90176,-1.990466 2.90176,-3.861025 0,-2.6379677 -2.13435,-4.3406567 -5.22797,-4.3406567 -1.72667,0 -3.64519,0.551576 -5.0601,1.366947 l 0.45565,1.4868547 c 1.48685,-0.7434267 3.04565,-1.1271317 4.26871,-1.1271317 2.13435,0 3.69315,1.1031497 3.69315,2.8058387 0,1.822596 -1.77463,3.045654 -4.22075,3.045654 h -1.295 v 1.702688 h 1.72667 c 2.78186,0 4.53251,1.199076 4.53251,3.165561 0,1.870559 -1.63074,2.901765 -4.10084,2.901765 -1.46287,0 -3.40538,-0.359723 -4.96418,-1.127132 l -0.43166,1.606762 c 1.60676,0.815372 3.57324,1.295003 5.32389,1.295003 z" />
    <path
       inkscape:connector-curvature="0"
       id="path1008"
       style="font-style:normal;font-variant:normal;font-weight:normal;font-stretch:normal;font-size:23.98152542px;line-height:1.25;font-family:Cantarell;-inkscape-font-specification:Cantarell;letter-spacing:0px;word-spacing:0px;fill:#ffffff;fill-opacity:1;stroke:none;stroke-width:0.59953815"
       d="m 156.05759,24.64729 h 1.89454 v -4.172785 h 2.99769 v -1.630744 h -2.99769 V 7.7642963 h -1.84658 l -8.34557,11.7029847 v 1.007224 h 8.29761 z m 0,-5.803529 h -5.94742 l 5.9714,-8.561405 z" />
    <path
       inkscape:connector-curvature="0"
       id="path1010"
       style="font-style:normal;font-variant:normal;font-weight:normal;font-stretch:normal;font-size:23.98152542px;line-height:1.25;font-family:Cantarell;-inkscape-font-specification:Cantarell;letter-spacing:0px;word-spacing:0px;fill:#ffffff;fill-opacity:1;stroke:none;stroke-width:0.59953815"
       d="m 186.31718,24.64729 c 3.69316,0 6.18724,-2.110374 6.18724,-5.371862 0,-3.117598 -2.25427,-5.084083 -5.99538,-5.084083 -0.71945,0 -1.46288,0.07194 -2.15834,0.215834 l 0.23981,-4.9401937 h 7.12252 v -1.702689 h -8.92113 l -0.40769,8.5134417 c 1.07917,-0.239816 2.4701,-0.407686 3.52529,-0.407686 2.82982,0 4.55649,1.318984 4.55649,3.573247 0,2.158337 -1.58278,3.45334 -4.0289,3.45334 -1.43889,0 -3.02167,-0.407686 -4.26871,-1.079169 l -0.57556,1.582781 c 1.48686,0.79139 3.04566,1.247039 4.72436,1.247039 z" />
    <path
       inkscape:connector-curvature="0"
       id="path1012"
       style="font-style:normal;font-variant:normal;font-weight:normal;font-stretch:normal;font-size:23.98152542px;line-height:1.25;font-family:Cantarell;-inkscape-font-specification:Cantarell;letter-spacing:0px;word-spacing:0px;fill:#ffffff;fill-opacity:1;stroke:none;stroke-width:0.59953815"
       d="m 221.58206,24.64729 c 3.21353,0 5.49177,-2.254263 5.49177,-5.491769 0,-2.997691 -1.96648,-4.988157 -4.84427,-4.988157 -2.03843,0 -3.74111,0.983242 -4.60445,2.613986 0,-0.143889 0,-0.31176 0,-0.479631 0,-4.676397 1.70269,-7.0265867 5.22797,-7.0265867 1.15112,0 2.37417,0.263797 3.42936,0.8153717 L 226.858,8.5317053 c -1.31899,-0.695464 -2.56603,-1.007224 -3.90899,-1.007224 -4.60445,0 -7.2664,3.3813947 -7.2664,9.0410347 0,5.108065 2.15833,8.081774 5.89945,8.081774 z M 217.769,18.436075 c 0.6475,-1.654725 2.08639,-2.613986 3.90899,-2.613986 2.15834,0 3.5013,1.390928 3.5013,3.573247 0,2.110374 -1.27102,3.525284 -3.35741,3.525284 -2.23028,0 -3.62121,-1.534817 -4.05288,-4.484545 z" />
    <path
       inkscape:connector-curvature="0"
       id="path1014"
       style="font-style:normal;font-variant:normal;font-weight:normal;font-stretch:normal;font-size:23.98152542px;line-height:1.25;font-family:Cantarell;-inkscape-font-specification:Cantarell;letter-spacing:0px;word-spacing:0px;fill:#ffffff;fill-opacity:1;stroke:none;stroke-width:0.59953815"
       d="m 252.74266,24.407475 h 2.03843 l 6.90668,-15.6839177 v -0.959261 h -11.15141 v 1.72667 h 8.8252 z" />
    <path
       inkscape:connector-curvature="0"
       id="path1016"
       style="font-style:normal;font-variant:normal;font-weight:normal;font-stretch:normal;font-size:23.98152542px;line-height:1.25;font-family:Cantarell;-inkscape-font-specification:Cantarell;letter-spacing:0px;word-spacing:0px;fill:#ffffff;fill-opacity:1;stroke:none;stroke-width:0.59953815"
       d="m 289.94371,24.64729 c 3.47732,0 5.80353,-1.798614 5.80353,-4.436582 0,-2.470097 -1.96649,-3.573247 -4.05288,-4.484545 2.06241,-0.743428 3.30945,-2.374171 3.30945,-4.196767 0,-2.3981527 -2.08639,-4.0049147 -5.03612,-4.0049147 -3.09362,0 -5.18001,1.774633 -5.18001,4.3406557 0,2.134356 1.36695,3.237506 3.02167,4.052878 -2.2063,0.599538 -3.64519,2.302226 -3.64519,4.340656 0,2.613986 2.35019,4.388619 5.77955,4.388619 z m -0.45565,-8.009829 c 2.13436,0.863335 4.22075,1.630743 4.22075,3.669173 0,1.606762 -1.27102,2.613986 -3.45334,2.613986 -2.37417,0 -4.05288,-1.175094 -4.05288,-2.949727 0,-1.582781 1.295,-2.925746 3.28547,-3.333432 z m 0.59954,-1.582781 c -1.8226,-0.767409 -3.35742,-1.606762 -3.35742,-3.357414 0,-1.510836 1.15112,-2.4940777 2.9977,-2.4940777 1.96648,0 3.38139,1.0791677 3.38139,2.6619487 0,1.462873 -1.22306,2.733894 -3.02167,3.189543 z" />
    <path
       inkscape:connector-curvature="0"
       id="path1018"
       style="font-style:normal;font-variant:normal;font-weight:normal;font-stretch:normal;font-size:23.98152542px;line-height:1.25;font-family:Cantarell;-inkscape-font-specification:Cantarell;letter-spacing:0px;word-spacing:0px;fill:#ffffff;fill-opacity:1;stroke:none;stroke-width:0.59953815"
       d="m 322.90837,7.5244813 c -3.21353,0 -5.49177,2.254263 -5.49177,5.4917687 0,2.997691 1.96648,4.988158 4.84427,4.988158 2.03843,0 3.74112,-0.983243 4.60445,-2.613987 0,0.143889 0,0.31176 0,0.479631 0,4.676397 -1.70269,7.026587 -5.22797,7.026587 -1.15112,0 -2.37417,-0.263797 -3.42936,-0.815372 l -0.57556,1.558799 c 1.31899,0.695464 2.56603,1.007224 3.90899,1.007224 4.60445,0 7.2664,-3.381395 7.2664,-9.041035 0,-5.108065 -2.15833,-8.0817737 -5.89945,-8.0817737 z m 3.81306,6.2112147 c -0.6475,1.654725 -2.08639,2.613986 -3.90899,2.613986 -2.15833,0 -3.5013,-1.390928 -3.5013,-3.573247 0,-2.110374 1.27102,-3.5252837 3.35741,-3.5252837 2.23029,0 3.62121,1.5348167 4.05288,4.4845447 z" />
    <text
       xml:space="preserve"
       style="font-style:normal;font-variant:normal;font-weight:normal;font-stretch:normal;font-size:34.68085098px;line-height:1.25;font-family:Cantarell;-inkscape-font-specification:Cantarell;letter-spacing:0px;word-spacing:0px;fill:#ffffff;fill-opacity:1;stroke:none;stroke-width:0.86702126"
       x="356.98331"
       y="27.669291"
       id="text1034"><tspan
         sodipodi:role="line"
         id="tspan1032"
         x="356.98331"
         y="27.669291"
         style="stroke-width:0.86702126">+</tspan></text>
    <rect
       style="fill:#5293e1;fill-opacity:1;stroke:none;stroke-width:38.48601913;stroke-linecap:round;stroke-linejoin:round;stroke-miterlimit:4;stroke-dasharray:none;stroke-dashoffset:0;stroke-opacity:1;paint-order:stroke markers fill"
       id="rect1036"
       width="103.28809"
       height="34"
       x="390.92905"
       y="0" />
    <rect
       y="30"
       x="390.92905"
       height="4"
       width="103.28809"
       id="rect944"
       style="fill:#3579ca;fill-opacity:1;stroke:none;stroke-width:17.7710228;stroke-linecap:round;stroke-linejoin:round;stroke-miterlimit:4;stroke-dasharray:none;stroke-dashoffset:0;stroke-opacity:1;paint-order:stroke markers fill" />
    <rect
       y="5.6320691"
       x="397.11624"
       height="17.937637"
       width="17.937637"
       id="rect1074"
       style="fill:#e0527e;fill-opacity:1;stroke:none;stroke-width:15.6827631;stroke-linecap:round;stroke-linejoin:round;stroke-miterlimit:4;stroke-dasharray:none;stroke-dashoffset:0;stroke-opacity:1;paint-order:stroke markers fill" />
    <rect
       style="fill:#ca3563;fill-opacity:1;stroke:none;stroke-width:7.40576553;stroke-linecap:round;stroke-linejoin:round;stroke-miterlimit:4;stroke-dasharray:none;stroke-dashoffset:0;stroke-opacity:1;paint-order:stroke markers fill"
       id="rect1079"
       width="17.937637"
       height="4"
       x="397.11624"
       y="19.569706" />
  </g>
</svg>
