<?xml version="1.0" encoding="UTF-8" standalone="no"?>
<svg
   xmlns:dc="http://purl.org/dc/elements/1.1/"
   xmlns:cc="http://creativecommons.org/ns#"
   xmlns:rdf="http://www.w3.org/1999/02/22-rdf-syntax-ns#"
   xmlns:svg="http://www.w3.org/2000/svg"
   xmlns="http://www.w3.org/2000/svg"
   xmlns:sodipodi="http://sodipodi.sourceforge.net/DTD/sodipodi-0.dtd"
   xmlns:inkscape="http://www.inkscape.org/namespaces/inkscape"
   sodipodi:docname="notify.svg"
   inkscape:version="1.0 (4035a4fb49, 2020-05-01)"
   id="SVGRoot"
   version="1.1"
   viewBox="0 0 16 16"
   height="16px"
   width="16px">
  <defs
     id="defs2517" />
  <sodipodi:namedview
     inkscape:snap-page="true"
     inkscape:snap-bbox-midpoints="true"
     inkscape:snap-bbox-edge-midpoints="true"
     inkscape:bbox-nodes="true"
     inkscape:bbox-paths="true"
     inkscape:snap-bbox="true"
     inkscape:document-rotation="0"
     inkscape:guide-bbox="true"
     showguides="true"
     inkscape:snap-text-baseline="true"
     inkscape:snap-center="true"
     inkscape:snap-object-midpoints="true"
     inkscape:snap-smooth-nodes="true"
     inkscape:snap-midpoints="true"
     inkscape:object-paths="true"
     inkscape:snap-intersection-paths="true"
     inkscape:grid-bbox="true"
     inkscape:window-maximized="0"
     inkscape:window-y="32"
     inkscape:window-x="1920"
     inkscape:window-height="1048"
     inkscape:window-width="1920"
     showgrid="false"
     inkscape:current-layer="g3087"
     inkscape:document-units="px"
     inkscape:cy="13.230508"
     inkscape:cx="12.504346"
     inkscape:zoom="22.627417"
     inkscape:pageshadow="2"
     inkscape:pageopacity="0.0"
     borderopacity="1.0"
     bordercolor="#666666"
     pagecolor="#ffffff"
     id="base">
    <sodipodi:guide
       inkscape:color="rgb(0,0,255)"
       inkscape:label=""
       inkscape:locked="false"
       id="guide3089"
       orientation="0,1"
       position="0,0" />
    <sodipodi:guide
       inkscape:color="rgb(0,0,255)"
       inkscape:label=""
       inkscape:locked="false"
       id="guide3091"
       orientation="1,0"
       position="16,0" />
    <sodipodi:guide
       inkscape:color="rgb(0,0,255)"
       inkscape:label=""
       inkscape:locked="false"
       id="guide3093"
       orientation="0,1"
       position="0,16" />
    <sodipodi:guide
       inkscape:color="rgb(0,0,255)"
       inkscape:label=""
       inkscape:locked="false"
       id="guide3095"
       orientation="1,0"
       position="0,16" />
  </sodipodi:namedview>
  <metadata
     id="metadata2520">
    <rdf:RDF>
      <cc:Work
         rdf:about="">
        <dc:format>image/svg+xml</dc:format>
        <dc:type
           rdf:resource="http://purl.org/dc/dcmitype/StillImage" />
        <dc:title></dc:title>
      </cc:Work>
    </rdf:RDF>
  </metadata>
  <g
     id="layer1"
     inkscape:groupmode="layer"
     inkscape:label="Layer 1">
    <g
       style="stroke-width:0.80271876"
       transform="matrix(1.2457663,0,0,1.2457663,-2.1800911,-1.7129287)"
       id="g3087">
      <path
         transform="matrix(0.80271878,0,0,0.80271878,1.7500001,1.375)"
         d="M 5.3339844 0 A 5.3333591 5.3333591 0 0 0 0 5.3339844 A 5.3333591 5.3333591 0 0 0 5.3339844 10.666016 L 10.666016 10.666016 L 10.666016 5.3339844 A 5.3333591 5.3333591 0 0 0 5.3339844 0 z M 5.3339844 2.34375 C 5.6182555 2.34375 5.8457031 2.5731505 5.8457031 2.8574219 L 5.8457031 2.9648438 C 6.525542 3.181764 7.0195312 3.8088891 7.0195312 4.5625 L 7.0195312 6.0332031 C 7.0195312 6.0915586 7.0076865 6.1463306 7.0019531 6.203125 C 7.3637514 6.2664235 7.6425781 6.5687464 7.6425781 6.9492188 C 7.6425781 7.3756257 7.2994536 7.71875 6.8730469 7.71875 L 5.8457031 7.71875 L 5.8457031 7.8085938 C 5.8457031 8.092865 5.6182555 8.3222656 5.3339844 8.3222656 C 5.049713 8.3222656 4.8203125 8.092865 4.8203125 7.8085938 L 4.8203125 7.71875 L 3.7929688 7.71875 C 3.3665619 7.71875 3.0234375 7.3756257 3.0234375 6.9492188 C 3.0234375 6.5680772 3.3032696 6.2656497 3.6660156 6.203125 C 3.660276 6.1463 3.6484375 6.0915911 3.6484375 6.0332031 L 3.6484375 4.5625 C 3.6484375 3.8088891 4.1404736 3.181764 4.8203125 2.9648438 L 4.8203125 2.8574219 C 4.8203125 2.5731505 5.049713 2.34375 5.3339844 2.34375 z "
         style="opacity:1;fill:#000000;fill-opacity:1;stroke:none;stroke-width:9.07127;stroke-linecap:round;stroke-linejoin:round;stroke-miterlimit:4;stroke-dasharray:none;stroke-dashoffset:0;stroke-opacity:1"
         id="path837" />
      <path
         id="path3082"
         d="M 12.453,14.2185 A 2.1405,2.1405 0 0 0 14.5935,12.078 2.1405,2.1405 0 0 0 12.453,9.9375 h -2.1405 v 2.1405 a 2.1405,2.1405 0 0 0 2.1405,2.1405 z"
         style="opacity:1;fill:#000000;fill-opacity:1;stroke:none;stroke-width:3.64067698;stroke-linecap:round;stroke-linejoin:round;stroke-miterlimit:4;stroke-dasharray:none;stroke-dashoffset:0;stroke-opacity:1"
         inkscape:connector-curvature="0" />
    </g>
  </g>
</svg>
