<?xml version="1.0" encoding="UTF-8" standalone="no"?>
<!-- Created with Inkscape (http://www.inkscape.org/) -->

<svg
   xmlns:dc="http://purl.org/dc/elements/1.1/"
   xmlns:cc="http://creativecommons.org/ns#"
   xmlns:rdf="http://www.w3.org/1999/02/22-rdf-syntax-ns#"
   xmlns:svg="http://www.w3.org/2000/svg"
   xmlns="http://www.w3.org/2000/svg"
   xmlns:sodipodi="http://sodipodi.sourceforge.net/DTD/sodipodi-0.dtd"
   xmlns:inkscape="http://www.inkscape.org/namespaces/inkscape"
   width="16px"
   height="16px"
   viewBox="0 0 16 16"
   version="1.1"
   id="SVGRoot"
   inkscape:version="0.92.4 5da689c313, 2019-01-14"
   sodipodi:docname="tools.svg">
  <defs
     id="defs2517" />
  <sodipodi:namedview
     id="base"
     pagecolor="#ffffff"
     bordercolor="#666666"
     borderopacity="1.0"
     inkscape:pageopacity="0.0"
     inkscape:pageshadow="2"
     inkscape:zoom="32"
     inkscape:cx="7.0653847"
     inkscape:cy="6.6478705"
     inkscape:document-units="px"
     inkscape:current-layer="g3087"
     showgrid="false"
     inkscape:window-width="1920"
     inkscape:window-height="1048"
     inkscape:window-x="1920"
     inkscape:window-y="32"
     inkscape:window-maximized="0"
     inkscape:grid-bbox="true"
     inkscape:snap-intersection-paths="true"
     inkscape:object-paths="true"
     inkscape:snap-midpoints="true"
     inkscape:snap-smooth-nodes="true"
     inkscape:snap-object-midpoints="true"
     inkscape:snap-center="true"
     inkscape:snap-text-baseline="true"
     showguides="true"
     inkscape:guide-bbox="true">
    <sodipodi:guide
       position="0,0"
       orientation="0,1"
       id="guide3089"
       inkscape:locked="false"
       inkscape:label=""
       inkscape:color="rgb(0,0,255)" />
    <sodipodi:guide
       position="16,0"
       orientation="1,0"
       id="guide3091"
       inkscape:locked="false"
       inkscape:label=""
       inkscape:color="rgb(0,0,255)" />
    <sodipodi:guide
       position="0,16"
       orientation="0,1"
       id="guide3093"
       inkscape:locked="false"
       inkscape:label=""
       inkscape:color="rgb(0,0,255)" />
    <sodipodi:guide
       position="0,16"
       orientation="1,0"
       id="guide3095"
       inkscape:locked="false"
       inkscape:label=""
       inkscape:color="rgb(0,0,255)" />
  </sodipodi:namedview>
  <metadata
     id="metadata2520">
    <rdf:RDF>
      <cc:Work
         rdf:about="">
        <dc:format>image/svg+xml</dc:format>
        <dc:type
           rdf:resource="http://purl.org/dc/dcmitype/StillImage" />
        <dc:title></dc:title>
      </cc:Work>
    </rdf:RDF>
  </metadata>
  <g
     inkscape:label="Layer 1"
     inkscape:groupmode="layer"
     id="layer1">
    <g
       id="g3087"
       transform="matrix(1.2457663,0,0,1.2457663,-2.1800911,-1.7129287)"
       style="stroke-width:0.80271876">
      <path
         inkscape:connector-curvature="0"
         style="opacity:1;fill:#000000;fill-opacity:1;stroke:none;stroke-width:3.64067698;stroke-linecap:round;stroke-linejoin:round;stroke-miterlimit:4;stroke-dasharray:none;stroke-dashoffset:0;stroke-opacity:1"
         d="M 12.453,14.2185 A 2.1405,2.1405 0 0 0 14.5935,12.078 2.1405,2.1405 0 0 0 12.453,9.9375 h -2.1405 v 2.1405 a 2.1405,2.1405 0 0 0 2.1405,2.1405 z"
         id="path3082" />
      <path
         id="path822"
         d="M 6.03125,1.3750001 A 4.28125,4.28125 0 0 0 1.7500001,5.65625 4.28125,4.28125 0 0 0 6.03125,9.9375 H 10.3125 V 5.65625 A 4.28125,4.28125 0 0 0 6.03125,1.3750001 Z"
         style="opacity:1;fill:#000000;fill-opacity:1;stroke:none;stroke-width:7.28177929;stroke-linecap:round;stroke-linejoin:round;stroke-miterlimit:4;stroke-dasharray:none;stroke-dashoffset:0;stroke-opacity:1"
         inkscape:connector-curvature="0" />
      <g
         aria-label="{}"
         transform="matrix(-0.83652586,0,0,0.83652586,0.94684231,0.70158818)"
         style="font-style:normal;font-variant:normal;font-weight:normal;font-stretch:normal;font-size:6.72391605px;line-height:1.25;font-family:'Visby Round CF';-inkscape-font-specification:'Visby Round CF';letter-spacing:0px;word-spacing:0px;fill:#ffffff;fill-opacity:1;stroke:none;stroke-width:0.13493547"
         id="text826">
        <path
           d="m -6.7167726,2.9811901 h -0.5379133 c -0.2891284,0 -0.7598025,0.1143066 -0.7598025,0.7598026 v 1.7011507 l -0.1412022,0.2286132 c -0.094135,0.1613739 -0.094135,0.3630914 0,0.5244654 l 0.1412022,0.2151653 v 1.6944269 c 0,0.6454959 0.4572263,0.7598025 0.7598025,0.7598025 h 0.5379133 c 0.2353371,0 0.4236067,-0.1882697 0.4236067,-0.4168828 0,-0.2353371 -0.1882696,-0.4236067 -0.4236067,-0.4236067 h -0.080687 c -0.1412022,0 -0.2353371,-0.060515 -0.2353371,-0.2017175 V 6.5246939 c 0,-0.1008587 -0.026896,-0.1815457 -0.094135,-0.2689566 L -7.409336,5.9329893 -7.1134836,5.5967935 c 0.053791,-0.087411 0.080687,-0.1680979 0.080687,-0.2689567 V 4.0233971 c 0,-0.1412022 0.094135,-0.2017175 0.2353371,-0.2017175 h 0.080687 c 0.2353371,0 0.4236067,-0.1882696 0.4236067,-0.4236067 0,-0.2286131 -0.1882696,-0.4168828 -0.4236068,-0.4168828 z"
           style="fill:#ffffff;stroke-width:0.13493547"
           id="path828"
           inkscape:connector-curvature="0" />
        <path
           d="m -5.4392359,2.9811901 c -0.2353371,0 -0.4236067,0.1882697 -0.4236067,0.4168828 0,0.2353371 0.1882696,0.4236067 0.4236067,0.4236067 h 0.080687 c 0.1412022,0 0.2353371,0.060515 0.2353371,0.2017175 v 1.3044397 c 0,0.1008588 0.026896,0.1815458 0.080687,0.2689567 l 0.2958523,0.3361958 -0.2824045,0.322748 c -0.067239,0.087411 -0.094135,0.1680979 -0.094135,0.2689566 v 1.2977158 c 0,0.1412022 -0.094135,0.2017175 -0.2353371,0.2017175 h -0.080687 c -0.2353371,0 -0.4236067,0.1882696 -0.4236067,0.4236067 0,0.2286131 0.1882696,0.4168828 0.4236067,0.4168828 h 0.5379133 c 0.3025762,0 0.7598025,-0.1143066 0.7598025,-0.7598025 V 6.4103873 L -4.0003179,6.195222 c 0.094135,-0.161374 0.094135,-0.3630915 0,-0.5244654 L -4.1415201,5.4421434 V 3.7409927 c 0,-0.645496 -0.4706741,-0.7598026 -0.7598025,-0.7598026 z"
           style="fill:#ffffff;stroke-width:0.13493547"
           id="path830"
           inkscape:connector-curvature="0" />
      </g>
    </g>
  </g>
</svg>
