<?xml version="1.0" encoding="UTF-8" standalone="no"?>
<svg
   xmlns:dc="http://purl.org/dc/elements/1.1/"
   xmlns:cc="http://creativecommons.org/ns#"
   xmlns:rdf="http://www.w3.org/1999/02/22-rdf-syntax-ns#"
   xmlns:svg="http://www.w3.org/2000/svg"
   xmlns="http://www.w3.org/2000/svg"
   xmlns:sodipodi="http://sodipodi.sourceforge.net/DTD/sodipodi-0.dtd"
   xmlns:inkscape="http://www.inkscape.org/namespaces/inkscape"
   sodipodi:docname="box.svg"
   inkscape:version="1.0 (4035a4fb49, 2020-05-01)"
   id="SVGRoot"
   version="1.1"
   viewBox="0 0 16 16"
   height="16px"
   width="16px">
  <defs
     id="defs2517" />
  <sodipodi:namedview
     inkscape:snap-global="true"
     inkscape:document-rotation="0"
     inkscape:guide-bbox="true"
     showguides="true"
     inkscape:snap-text-baseline="true"
     inkscape:snap-center="true"
     inkscape:snap-object-midpoints="true"
     inkscape:snap-smooth-nodes="true"
     inkscape:snap-midpoints="true"
     inkscape:object-paths="true"
     inkscape:snap-intersection-paths="true"
     inkscape:grid-bbox="true"
     inkscape:window-maximized="0"
     inkscape:window-y="32"
     inkscape:window-x="1920"
     inkscape:window-height="1048"
     inkscape:window-width="1920"
     showgrid="false"
     inkscape:current-layer="layer1"
     inkscape:document-units="px"
     inkscape:cy="14.047844"
     inkscape:cx="4.3705898"
     inkscape:zoom="16"
     inkscape:pageshadow="2"
     inkscape:pageopacity="0.0"
     borderopacity="1.0"
     bordercolor="#666666"
     pagecolor="#ffffff"
     id="base">
    <sodipodi:guide
       inkscape:color="rgb(0,0,255)"
       inkscape:label=""
       inkscape:locked="false"
       id="guide3089"
       orientation="0,1"
       position="0,0" />
    <sodipodi:guide
       inkscape:color="rgb(0,0,255)"
       inkscape:label=""
       inkscape:locked="false"
       id="guide3091"
       orientation="1,0"
       position="16,0" />
    <sodipodi:guide
       inkscape:color="rgb(0,0,255)"
       inkscape:label=""
       inkscape:locked="false"
       id="guide3093"
       orientation="0,1"
       position="0,16" />
    <sodipodi:guide
       inkscape:color="rgb(0,0,255)"
       inkscape:label=""
       inkscape:locked="false"
       id="guide3095"
       orientation="1,0"
       position="0,16" />
  </sodipodi:namedview>
  <metadata
     id="metadata2520">
    <rdf:RDF>
      <cc:Work
         rdf:about="">
        <dc:format>image/svg+xml</dc:format>
        <dc:type
           rdf:resource="http://purl.org/dc/dcmitype/StillImage" />
        <dc:title></dc:title>
      </cc:Work>
    </rdf:RDF>
  </metadata>
  <g
     id="layer1"
     inkscape:groupmode="layer"
     inkscape:label="Layer 1">
    <g
       style="fill:#000000;fill-opacity:1;stroke-width:0.802719"
       transform="matrix(0.60195791,0,0,0.60195791,2.4919905,-0.01571361)"
       id="g3087">
      <path
         inkscape:connector-curvature="0"
         style="opacity:1;fill:#000000;fill-opacity:1;stroke:none;stroke-width:3.64068;stroke-linecap:round;stroke-linejoin:round;stroke-miterlimit:4;stroke-dasharray:none;stroke-dashoffset:0;stroke-opacity:1"
         d="M 6.03125,1.375 A 4.28125,4.28125 0 0 0 1.75,5.65625 4.28125,4.28125 0 0 0 6.03125,9.9375 H 10.3125 V 5.65625 A 4.28125,4.28125 0 0 0 6.03125,1.375 Z m 0,2.140625 A 2.1405001,2.1405001 0 0 1 8.171875,5.65625 2.1405001,2.1405001 0 0 1 6.03125,7.796875 2.1405001,2.1405001 0 0 1 3.890625,5.65625 2.1405001,2.1405001 0 0 1 6.03125,3.515625 Z"
         id="path3075" />
      <path
         id="path3082"
         d="M 12.453,14.2185 A 2.1405,2.1405 0 0 0 14.5935,12.078 2.1405,2.1405 0 0 0 12.453,9.9375 h -2.1405 v 2.1405 a 2.1405,2.1405 0 0 0 2.1405,2.1405 z"
         style="opacity:1;fill:#000000;fill-opacity:1;stroke:none;stroke-width:3.64068;stroke-linecap:round;stroke-linejoin:round;stroke-miterlimit:4;stroke-dasharray:none;stroke-dashoffset:0;stroke-opacity:1"
         inkscape:connector-curvature="0" />
    </g>
    <g
       transform="translate(0,-0.75792981)"
       style="fill:#52e067;fill-opacity:1"
       id="g1481">
      <g
         style="fill:#52e067;fill-opacity:1"
         id="g1474">
        <rect
           ry="1.2911491"
           rx="0"
           y="8.0126638"
           x="3.4903178"
           height="7.8276944"
           width="9.0774946"
           id="rect1462"
           style="fill:#52e067;fill-opacity:1;stroke:none;stroke-width:1.26089;stroke-linecap:round;stroke-linejoin:round;stroke-miterlimit:4;stroke-dasharray:none;paint-order:stroke markers fill" />
        <path
           d="M 0.30665413,10.846649 2.8920647,8.261238 c 0.3314322,-0.3314322 0.8650741,-0.3314322 1.1965066,2e-7 0.3314322,0.3314319 0.3314316,0.8650734 -7e-7,1.1965055 L 1.5031603,12.043155 c -0.3314323,0.331433 -0.86507361,0.331433 -1.19650588,10e-7 -0.33143268,-0.331433 -0.33143256,-0.865075 -2.9e-7,-1.196507 z"
           style="fill:#52e067;fill-opacity:1;stroke:none;stroke-width:11.86;stroke-linecap:round;stroke-linejoin:round;stroke-miterlimit:4;stroke-dasharray:none;paint-order:stroke markers fill"
           id="rect1466" />
        <path
           id="path1469"
           style="fill:#52e067;fill-opacity:1;stroke:none;stroke-width:11.86;stroke-linecap:round;stroke-linejoin:round;stroke-miterlimit:4;stroke-dasharray:none;paint-order:stroke markers fill"
           d="M 14.535795,12.043155 11.950384,9.4577443 c -0.331433,-0.331432 -0.331433,-0.865074 0,-1.196506 0.331432,-0.331432 0.865073,-0.331432 1.196505,0 l 2.585412,2.5854107 c 0.331433,0.331432 0.331433,0.865073 1e-6,1.196506 -0.331433,0.331433 -0.865075,0.331432 -1.196507,0 z" />
      </g>
      <rect
         style="fill:#52e067;fill-opacity:1;stroke:none;stroke-width:11.86;stroke-linecap:round;stroke-linejoin:round;stroke-miterlimit:4;stroke-dasharray:none;paint-order:stroke markers fill"
         id="rect1464"
         width="9.0583191"
         height="1.6622641"
         x="3.4903178"
         y="8.0126638"
         ry="0" />
    </g>
    <g
       transform="translate(0,0.46258759)"
       id="g1492">
      <rect
         style="fill:#ffffff;fill-opacity:1;stroke:#ffffff;stroke-width:0.934806;stroke-linecap:round;stroke-linejoin:round;stroke-miterlimit:4;stroke-dasharray:none;stroke-opacity:1;paint-order:stroke markers fill"
         id="rect1486"
         width="0.51171499"
         height="2.3829408"
         x="7.7732081"
         y="10.249977" />
      <path
         sodipodi:type="star"
         style="fill:#ffffff;fill-opacity:1;stroke:#ffffff;stroke-width:0.5;stroke-linecap:round;stroke-linejoin:round;stroke-miterlimit:4;stroke-dasharray:none;stroke-opacity:1;paint-order:stroke markers fill"
         id="path1488"
         sodipodi:sides="3"
         sodipodi:cx="8.0194778"
         sodipodi:cy="9.6514549"
         sodipodi:r1="1.1970444"
         sodipodi:r2="0.59852219"
         sodipodi:arg1="0.52359878"
         sodipodi:arg2="1.5707963"
         inkscape:flatsided="false"
         inkscape:rounded="0"
         inkscape:randomized="0"
         d="m 9.0561487,10.249977 -1.0366708,0 -1.0366709,0 0.5183354,-0.8977832 0.5183354,-0.8977832 0.5183355,0.8977832 z"
         inkscape:transform-center-y="-0.29926109" />
    </g>
  </g>
</svg>
